PathFileType	4	(X/Y/Z)	/Users/itak/Documents/Research/Walk-IL/dataset/trc/00050_00006.trc
DataRate	CameraRate	NumFrames	NumMarkers	Units	OrigDataRate	OrigDataStartFrame	OrigNumFrames
100.000000	100.000000	4	53	mm	100.000000	128	513
Frame#	Time	RPSI			LPSI			L3			STRN			T10			C7			CLAV			RBAK			LBAK			LSHO			LUPA			LAEL			LAOL			LWTS			LWPS			LFRA			LIFD			LHPS			LHTS			RSHO			RUPA			RAEL			RAOL			RWTS			RWPS			RFRA			RIFD			RHTS			RHPS			RBHD			LFHD			RFHD			LBHD			LHIP			RHIP			RASI			LASI			LKNE			LTHI			LANK			LTIP			LTOE			LMT1			LMT5			LHEE			RKNE			RTHI			RANK			RTIP			RTOE			RMT1			RMT5			RHEE			
		X1	Y1	Z1	X2	Y2	Z2	X3	Y3	Z3	X4	Y4	Z4	X5	Y5	Z5	X6	Y6	Z6	X7	Y7	Z7	X8	Y8	Z8	X9	Y9	Z9	X10	Y10	Z10	X11	Y11	Z11	X12	Y12	Z12	X13	Y13	Z13	X14	Y14	Z14	X15	Y15	Z15	X16	Y16	Z16	X17	Y17	Z17	X18	Y18	Z18	X19	Y19	Z19	X20	Y20	Z20	X21	Y21	Z21	X22	Y22	Z22	X23	Y23	Z23	X24	Y24	Z24	X25	Y25	Z25	X26	Y26	Z26	X27	Y27	Z27	X28	Y28	Z28	X29	Y29	Z29	X30	Y30	Z30	X31	Y31	Z31	X32	Y32	Z32	X33	Y33	Z33	X34	Y34	Z34	X35	Y35	Z35	X36	Y36	Z36	X37	Y37	Z37	X38	Y38	Z38	X39	Y39	Z39	X40	Y40	Z40	X41	Y41	Z41	X42	Y42	Z42	X43	Y43	Z43	X44	Y44	Z44	X45	Y45	Z45	X46	Y46	Z46	X47	Y47	Z47	X48	Y48	Z48	X49	Y49	Z49	X50	Y50	Z50	X51	Y51	Z51	X52	Y52	Z52	X53	Y53	Z53	

129	1.28	895.3007202148438	1024.909545898438	-205.0113525390625	881.06787109375	1013.681091308594	-380.7737121582031	892.3453369140625	1076.241577148438	-299.9459228515625	1139.305419921875	1272.193725585938	-303.1236877441406	872.8342895507812	1211.418701171875	-304.9532775878906	932.4271240234375	1477.463500976562	-314.69921875	1110.273559570312	1386.68994140625	-308.8294982910156	867.5935668945312	1342.310546875	-235.7622680664062	911.9338989257812	1436.825927734375	-415.1223754882812	1016.860778808594	1438.288696289062	-486.2325134277344	1002.890869140625	1309.115234375	-561.3483276367188	1029.0546875	1093.612182617188	-573.7526245117188	965.5543823242188	1079.779174804688	-490.0639038085938	1123.23828125	857.3872680664062	-503.8315734863281	1066.844482421875	844.3946533203125	-565.1607666015625	1051.922119140625	985.1708984375	-578.5078125	1138.103271484375	670.3551635742188	-483.6989440917969	1100.735229492188	764.3765258789062	-558.926025390625	1146.579467773438	775.04931640625	-505.2925415039062	996.9298706054688	1444.326416015625	-136.3960876464844	984.4480590820312	1376.756469726562	-72.93947601318359	954.430908203125	1114.377319335938	-32.90370559692383	971.0020751953125	1088.608154296875	-127.424934387207	1104.969360351562	866.9133911132812	-71.58724975585938	1038.583129882812	849.0648193359375	-18.52814674377441	970.4727783203125	1033.193481445312	-22.64645576477051	1119.014526367188	679.8811645507812	-91.33030700683594	1133.61669921875	766.1605834960938	-73.85655212402344	1080.4423828125	760.0863037109375	-18.14315032958984	971.4090576171875	1652.573974609375	-384.2499084472656	1125.446044921875	1689.230346679688	-236.3366088867188	1143.240478515625	1696.326293945312	-360.7248840332031	961.1399536132812	1638.009155273438	-247.8151702880859	989.4517822265625	947.1868896484375	-467.7880554199219	961.1492919921875	956.4163818359375	-126.1704940795898	1085.516845703125	972.8192138671875	-148.9151916503906	1100.336669921875	958.013916015625	-416.519287109375	1061.73095703125	486.8977355957031	-424.0934448242188	1029.4453125	626.6464233398438	-458.4487915039062	903.9632568359375	41.72084808349609	-445.0251159667969	975.4136962890625	250.2266235351562	-448.9829406738281	1108.643432617188	30.28513145446777	-453.3944396972656	1063.292724609375	31.8224048614502	-396.4661865234375	1003.055053710938	29.57901763916016	-491.1281433105469	856.0858764648438	40.20461273193359	-366.645751953125	1045.440795898438	508.8710021972656	-151.1902313232422	1047.309692382812	779.889892578125	-116.2789154052734	936.8457641601562	36.37070465087891	-159.2784271240234	1019.439025878906	385.7907104492188	-148.397216796875	1153.104125976562	28.13113784790039	-197.1801300048828	1091.481689453125	33.87075805664062	-237.2343139648438	1061.673706054688	37.17916488647461	-144.3427276611328	888.8800048828125	38.95591735839844	-215.4379730224609	
130	1.29	894.1781616210938	1025.006469726562	-204.4692077636719	880.4441528320312	1013.646118164062	-380.1872253417969	891.4131469726562	1076.473022460938	-299.4394836425781	1138.660888671875	1272.06982421875	-302.2205200195312	872.0917358398438	1211.683837890625	-304.5066223144531	932.1597290039062	1477.626831054688	-314.0575561523438	1109.841796875	1386.630615234375	-307.9833068847656	866.7507934570312	1342.632934570312	-235.2731018066406	911.80517578125	1437.044677734375	-414.55712890625	1016.75634765625	1438.408813476562	-485.4662780761719	1002.773376464844	1309.392944335938	-560.7997436523438	1028.706909179688	1093.869995117188	-573.4512329101562	965.1843872070312	1080.013916015625	-489.8461303710938	1122.734375	857.561279296875	-503.6405639648438	1066.380981445312	844.6055297851562	-565.0216064453125	1051.508422851562	985.416259765625	-578.2819213867188	1137.583129882812	670.5220336914062	-483.6584167480469	1100.283081054688	764.6304931640625	-558.8187255859375	1146.061889648438	775.250732421875	-505.1541748046875	996.1738891601562	1444.427490234375	-135.8720397949219	983.7469482421875	1376.902709960938	-72.27774047851562	953.5504150390625	1114.731567382812	-31.47446060180664	970.088134765625	1088.695434570312	-125.9310302734375	1104.345458984375	867.3448486328125	-70.02205657958984	1038.086181640625	849.4384765625	-16.8287296295166	969.6577758789062	1033.491455078125	-21.03635025024414	1118.6220703125	680.3209838867188	-89.65225219726562	1133.152709960938	766.6377563476562	-72.24456024169922	1080.05517578125	760.5233154296875	-16.45989036560059	971.3757934570312	1652.651733398438	-383.46630859375	1125.538696289062	1689.142578125	-235.6458892822266	1143.267944335938	1696.160400390625	-360.0171813964844	961.11181640625	1638.139892578125	-247.0055389404297	988.6547241210938	947.1920776367188	-467.152099609375	959.7427368164062	956.3807983398438	-125.5000686645508	1084.081176757812	972.968994140625	-147.9995574951172	1099.496337890625	957.9749755859375	-415.4703674316406	1061.90478515625	487.0931701660156	-423.6253051757812	1029.022216796875	626.6914672851562	-457.994384765625	904.0059204101562	41.73048782348633	-445.0538940429688	975.6073608398438	250.3168029785156	-448.827392578125	1108.662109375	30.26648712158203	-453.3978881835938	1063.299682617188	31.82365417480469	-396.4825744628906	1003.069702148438	29.5103759765625	-491.17236328125	856.074462890625	40.29754257202148	-366.7330932617188	1045.574829101562	508.95556640625	-150.8611297607422	1046.234375	779.7252807617188	-115.420295715332	936.8197021484375	36.41361236572266	-159.3317565917969	1019.7255859375	385.6867065429688	-148.0909881591797	1153.102294921875	28.13359451293945	-197.1828002929688	1091.487426757812	33.87298202514648	-237.2352752685547	1061.6884765625	37.20566558837891	-144.3598937988281	888.8926391601562	38.99528884887695	-215.4643402099609	
131	1.3	892.9878540039062	1025.057250976562	-203.8753814697266	879.7501220703125	1013.587097167969	-379.5536193847656	890.3785400390625	1076.709716796875	-298.8814086914062	1137.97705078125	1271.906372070312	-301.23095703125	871.286865234375	1211.953125	-303.9939880371094	931.890869140625	1477.78515625	-313.3472900390625	1109.385986328125	1386.540893554688	-307.0658569335938	865.8358764648438	1342.971923828125	-234.7156372070312	911.6769409179688	1437.262084960938	-413.9219360351562	1016.646240234375	1438.50537109375	-484.6264953613281	1002.635498046875	1309.650390625	-560.1782836914062	1028.322265625	1094.106689453125	-573.0935668945312	964.7584228515625	1080.21533203125	-489.5814514160156	1122.17236328125	857.7029418945312	-503.4076232910156	1065.861083984375	844.7963256835938	-564.8479614257812	1051.055053710938	985.6450805664062	-578.0078735351562	1137.004760742188	670.677001953125	-483.577880859375	1099.777587890625	764.8643798828125	-558.67578125	1145.489624023438	775.421875	-504.9785461425781	995.3878784179688	1444.530639648438	-135.2899322509766	983.0433349609375	1377.052001953125	-71.53617858886719	952.69384765625	1115.084838867188	-29.94337272644043	969.1654052734375	1088.792724609375	-124.3440475463867	1103.707275390625	867.7615356445312	-68.35598754882812	1037.5810546875	849.8134765625	-15.01437473297119	968.8624877929688	1033.796508789062	-19.32460594177246	1118.1943359375	680.7406005859375	-87.84352111816406	1132.657958984375	767.0979614257812	-70.52471160888672	1079.64892578125	760.9591064453125	-14.6539192199707	971.3450317382812	1652.697875976562	-382.6187133789062	1125.647094726562	1689.02734375	-234.9050598144531	1143.302856445312	1695.964477539062	-359.26611328125	961.10595703125	1638.259643554688	-246.1397857666016	987.8446655273438	947.1917114257812	-466.4614562988281	958.2561645507812	956.2951049804688	-124.7628021240234	1082.539306640625	973.0904541015625	-147.0240936279297	1098.589721679688	957.9434814453125	-414.3520812988281	1062.095703125	487.291015625	-423.0427856445312	1028.593627929688	626.7392578125	-457.4566040039062	904.0399780273438	41.74896621704102	-445.0806274414062	975.8255615234375	250.4123840332031	-448.6246337890625	1108.676147460938	30.24974060058594	-453.3986206054688	1063.306274414062	31.81898307800293	-396.4848327636719	1003.085632324219	29.46070098876953	-491.1991577148438	856.06396484375	40.38605499267578	-366.8199768066406	1045.658325195312	509.0250244140625	-150.5064697265625	1045.034423828125	779.5830078125	-114.5766067504883	936.7970581054688	36.44721603393555	-159.3945770263672	1019.970581054688	385.579345703125	-147.7767944335938	1153.101196289062	28.13563919067383	-197.1842041015625	1091.492431640625	33.87247467041016	-237.2376251220703	1061.700561523438	37.2324333190918	-144.3791046142578	888.9036254882812	39.0177116394043	-215.5047149658203	
132	1.31	891.7055053710938	1025.060424804688	-203.2271118164062	878.9674072265625	1013.505798339844	-378.8693542480469	889.22607421875	1076.959106445312	-298.2655029296875	1137.259887695312	1271.701782226562	-300.1562194824219	870.4320678710938	1212.229125976562	-303.4053649902344	931.6251220703125	1477.940063476562	-312.5638732910156	1108.91015625	1386.4169921875	-306.0751647949219	864.8697509765625	1343.325073242188	-234.0799865722656	911.5455932617188	1437.47705078125	-413.2105102539062	1016.532592773438	1438.57861328125	-483.71240234375	1002.473266601562	1309.883666992188	-559.4761962890625	1027.898193359375	1094.322021484375	-572.6738891601562	964.2752685546875	1080.380004882812	-489.2618713378906	1121.550903320312	857.8109130859375	-503.132080078125	1065.280639648438	844.9653930664062	-564.6356201171875	1050.558227539062	985.8531494140625	-577.6795654296875	1136.364379882812	670.8153076171875	-483.4568176269531	1099.212280273438	765.0723876953125	-558.4959106445312	1144.85986328125	775.5587158203125	-504.7618103027344	994.5975341796875	1444.631591796875	-134.6355133056641	982.3439331054688	1377.204711914062	-70.71151733398438	951.8689575195312	1115.435424804688	-28.30974578857422	968.2354125976562	1088.896728515625	-122.6633148193359	1103.053955078125	868.1588745117188	-66.5888671875	1037.064331054688	850.1866455078125	-13.08719444274902	968.0921020507812	1034.106811523438	-17.51019668579102	1117.72802734375	681.13525390625	-85.90114593505859	1132.128295898438	767.5352783203125	-68.69743347167969	1079.222900390625	761.3899536132812	-12.72336769104004	971.316650390625	1652.710571289062	-381.7060852050781	1125.7724609375	1688.88720703125	-234.1148376464844	1143.34765625	1695.7421875	-358.4709777832031	961.1219482421875	1638.366333007812	-245.2179412841797	987.0298461914062	947.1871948242188	-465.7161865234375	956.686279296875	956.1586303710938	-123.958137512207	1080.894409179688	973.17236328125	-145.9890747070312	1097.604125976562	957.9189453125	-413.167724609375	1062.298828125	487.4817810058594	-422.3405151367188	1028.192749023438	626.7913818359375	-456.8309326171875	904.0654296875	41.77935028076172	-445.1064453125	976.0671997070312	250.5125274658203	-448.3740234375	1108.687255859375	30.2320728302002	-453.3976440429688	1063.313842773438	31.80881500244141	-396.4754638671875	1003.103454589844	29.42724418640137	-491.209716796875	856.0587158203125	40.47555160522461	-366.9048156738281	1045.6875	509.0787658691406	-150.1221313476562	1043.704223632812	779.4776611328125	-113.7597351074219	936.7772216796875	36.47137451171875	-159.4683532714844	1020.174377441406	385.4662475585938	-147.4554443359375	1153.100830078125	28.13692855834961	-197.1842346191406	1091.496948242188	33.86813354492188	-237.2402801513672	1061.709594726562	37.25983047485352	-144.4004669189453	888.9138793945312	39.02380752563477	-215.5602416992188	
